inDegrees=no
num_controls=7
num_derivatives=13
num_iterations=124
num_multipliers=7
num_parameters=0
num_slacks=7
num_states=26
objective=5.292535
objective_accelerations=0.470479
objective_balance=0.113323
objective_effort=0.344230
objective_height=4.323468
objective_ligament=0.041035
solver_duration=1413.979534
status=Solve_Succeeded
success=true
DataType=double
version=3
OpenSimVersion=4.4-2022-07-23-0e9fedc
endheader
time	/jointset/ground_pelvis/pelvis_tilt/value	/jointset/ground_pelvis/pelvis_tx/value	/jointset/ground_pelvis/pelvis_ty/value	/jointset/hip_l/hip_flexion_l/value	/jointset/hip_l/hip_adduction_l/value	/jointset/hip_l/hip_rotation_l/value	/jointset/back/lumbar_extension/value	/jointset/patellofemoral_l/patellar_flexion_l/value	/jointset/knee_l/knee_flexion_l/value	/jointset/knee_l/knee_adduction_l/value	/jointset/knee_l/knee_rotation_l/value	/jointset/ankle_l/ankle_angle_l/value	/jointset/subtalar_l/subtalar_angle_l/value	/jointset/ground_pelvis/pelvis_tilt/speed	/jointset/ground_pelvis/pelvis_tx/speed	/jointset/ground_pelvis/pelvis_ty/speed	/jointset/hip_l/hip_flexion_l/speed	/jointset/hip_l/hip_adduction_l/speed	/jointset/hip_l/hip_rotation_l/speed	/jointset/back/lumbar_extension/speed	/jointset/patellofemoral_l/patellar_flexion_l/speed	/jointset/knee_l/knee_flexion_l/speed	/jointset/knee_l/knee_adduction_l/speed	/jointset/knee_l/knee_rotation_l/speed	/jointset/ankle_l/ankle_angle_l/speed	/jointset/subtalar_l/subtalar_angle_l/speed	/forceset/tau_hip_flexion_l	/forceset/tau_hip_adduction_l	/forceset/tau_hip_rotation_l	/forceset/tau_knee_flexion_l	/forceset/tau_ankle_angle_l	/forceset/tau_subtalar_angle_l	/forceset/tau_lumbar_extension	lambda_cid13_p0	lambda_cid13_p1	lambda_cid13_p2	lambda_cid13_p3	lambda_cid13_p4	lambda_cid13_p5	lambda_cid14_p0	/jointset/ground_pelvis/pelvis_tilt/accel	/jointset/ground_pelvis/pelvis_tx/accel	/jointset/ground_pelvis/pelvis_ty/accel	/jointset/hip_l/hip_flexion_l/accel	/jointset/hip_l/hip_adduction_l/accel	/jointset/hip_l/hip_rotation_l/accel	/jointset/back/lumbar_extension/accel	/jointset/patellofemoral_l/patellar_flexion_l/accel	/jointset/knee_l/knee_flexion_l/accel	/jointset/knee_l/knee_adduction_l/accel	/jointset/knee_l/knee_rotation_l/accel	/jointset/ankle_l/ankle_angle_l/accel	/jointset/subtalar_l/subtalar_angle_l/accel	gamma_cid13_p0	gamma_cid13_p1	gamma_cid13_p2	gamma_cid13_p3	gamma_cid13_p4	gamma_cid13_p5	gamma_cid14_p0
0	-0.1601682779818299	0.05857494720779863	0.8979987737198877	0.3774920279260975	-0.2591366556162448	-0.2729760018443956	-0.0126506700172305	0.03223623128434838	0.03223623128433527	-0.1745328766808047	0.1745326748862497	-0.04231376238535053	-0.009261017922794676	0	0	0	0	0	0	0	0	0	0	0	0	0	0.1590762244479988	-0.1077601096570481	-0.05919534776135817	-0.3602828384541513	0.4186161926182784	-0.04748554412956752	-0.0917737653375386	92.44378888287859	-0.9496722312922989	5.901556369653196	-47.09236663189629	-598.7124533825547	-83.3096670718321	-39.07530850973185	-2.799554946214279	-0.9020811072768885	-0.8031943626996143	9.03824703293045	-1.20230455647658	3.027533864685691	-4.92603851778249	8.595678932820006	8.595678932813417	0.05170827379349756	0.01861174887170408	2.5287710671218	-0.6404456248250887	-4.523810767721434e-08	4.140320088934273e-08	1.013658516439138e-07	1.852605390169121e-08	-7.883743432926072e-09	-6.729398476359037e-08	-1.667425240131715e-08
0.01	-0.1603023642874653	0.05852964742703183	0.8979595631623791	0.3779325824129786	-0.2591960572647275	-0.2728250551700247	-0.01289764507010266	0.03265657716042882	0.03265657716043746	-0.1745312011386011	0.1745308165030408	-0.04219142447706949	-0.009293279359737181	-0.02659420526712934	-0.009106676721531537	-0.007814729824562673	0.08774939224680205	-0.01179943907551347	0.03005230216850804	-0.04909487444048966	0.0837367494589903	0.08373674945900814	0.0003837442589085361	-0.0003587147686986433	0.02427714666504321	-0.006417339449227124	0.1492998193149078	-0.1167721203730907	-0.05666098215529376	-0.3443995228541111	0.3918923214140714	-0.02894975443143018	-0.08473909065777951	84.51425017825663	-7.354307359174327	6.629010717549427	-41.54839552478285	-599.3289145416441	-95.08079037315153	-39.08722112844156	-2.555901257875967	-0.9219653315057986	-0.7665066181513147	8.589052853253902	-1.156652466854803	2.973509890861716	-4.85619148840281	8.2128124250744	8.212812425079552	0.03902442785020788	-0.06118133656768617	2.348617082605322	-0.6371536063561037	-5.73815919482848e-08	8.444526749920746e-08	1.018858540260114e-07	2.970480632454851e-08	-8.721160912893322e-08	-2.768850672628098e-08	-1.627498312699492e-08
0.02	-0.1606957022339048	0.05839188000366889	0.8978430264414603	0.3792397843288791	-0.2593710310807239	-0.2723776991743406	-0.01362656478361379	0.03390431842555	0.03390431842554632	-0.1745242247642447	0.1745257573229414	-0.0418320289788525	-0.009388669291447571	-0.05185032817084688	-0.01849352851922874	-0.01546523268204787	0.1733294858015969	-0.02311443350169311	0.05928186425410984	-0.0963889321298862	0.1654790778234143	0.1654790778234139	0.00106016555411664	-0.0006401594104446426	0.04741151798647929	-0.01262569895389357	0.1395234141813307	-0.1257841310892212	-0.05412661654912951	-0.3285162072546186	0.3651684502096126	-0.0104139647334352	-0.07770441597812751	76.65487769205667	-13.77361683827129	7.361538451101907	-36.19600717112702	-598.9195442711749	-106.7507282079018	-39.12258702517735	-2.531938473533204	-0.9581161225089156	-0.7703489692843496	8.604387294528282	-1.105415626612858	2.862985848103607	-4.565875167564267	8.196794713906819	8.196794713893023	0.1102436810472907	0.03406577426336974	2.300215998400816	-0.598649635915816	-6.952507621935526e-08	1.274873341090722e-07	1.024058564081091e-07	4.08835587474058e-08	-1.665394748249404e-07	1.191697131102841e-08	-1.587571385267269e-08
0.03	-0.1613361495688898	0.0581600392752231	0.8976506716241689	0.3813916426363144	-0.259656857473932	-0.2716421825554545	-0.01481892244508966	0.0359592737951536	0.03595927379520729	-0.174509653762434	0.1745182953822859	-0.04124571836005486	-0.009544954278663224	-0.07611786888237446	-0.02780038794894681	-0.02298784747458662	0.2566119759748416	-0.03398860572629045	0.08768279410122931	-0.1417547082068432	0.245135576029946	0.2451355760299644	0.001825287031644665	-0.000843527930198611	0.0697812184665841	-0.01858936681304974	0.1345943144247765	-0.1183682256986052	-0.05337113303765376	-0.3235726043439511	0.3600142356487705	-0.01440509392486275	-0.07367355205304293	74.83504051282252	-11.89116717836338	7.255075816639207	-35.37761481836376	-599.2261480536562	-102.0941320385255	-39.18036094997012	-2.355978183470155	-0.9058282464816357	-0.7405688675492893	8.125639620902234	-1.069104959042706	2.807834889637004	-4.472745035450782	7.793617536680832	7.793617536691944	0.05536493108597357	-0.04624298459162862	2.194933935804008	-0.588966518272412	-9.115772922540731e-08	1.16597678150863e-07	1.434100360972049e-07	5.761944393721128e-08	-2.588932875022924e-07	-2.817828344412789e-09	-2.463890346558937e-08
0.04	-0.1622156355736304	0.05783735847382537	0.8973836204322941	0.3843634177939821	-0.260049562977117	-0.2706268189707612	-0.01645510110884298	0.03879950217942308	0.03879950217942866	-0.1744882878355166	0.1745090587923028	-0.04043779336385549	-0.009759624175940628	-0.09965806213440094	-0.03666154310961932	-0.03040450759874547	0.3373128558352607	-0.04449025549725875	0.1152512574131792	-0.1851531325914529	0.3225336807426845	0.3225336807427882	0.00241915050831671	-0.0009950892297950658	0.09173439346625148	-0.02430268096651363	0.129665214668433	-0.1109523203081661	-0.05261564952662214	-0.3186290014331424	0.354860021087894	-0.01839622311646382	-0.06964268812771907	73.08133607996194	-10.01867222128192	7.148348279859655	-34.74098927645297	-598.5844940732914	-97.33571814302992	-39.25923140154267	-2.3864689816338	-0.8689752686991982	-0.7491580356084139	8.088065231962947	-1.030911135887664	2.696492541068999	-4.172404829095264	7.74511601514827	7.745116015147789	0.07599208087481527	0.04442721829566042	2.216910902313897	-0.548578894777821	-1.129860351950672e-07	1.045960279128998e-07	1.852489410915997e-07	7.446990918406725e-08	-3.515156764060639e-07	-1.867304609661175e-08	-3.359100975659344e-08
0.05	-0.1633267337076173	0.05742768196034342	0.8970427551991865	0.3881302859194951	-0.2605451775264907	-0.2693399114017844	-0.01851556470802246	0.04240291745271155	0.04240291745271036	-0.1744614734571626	0.1744986789918975	-0.03941295262976053	-0.01003009123900398	-0.1224010125989648	-0.04525923620737266	-0.03776348204324989	0.4156842668234561	-0.05454080444021456	0.1420014633452641	-0.2266490744556839	0.397788911814376	0.3977889118144721	0.002957363869416199	-0.001080498814590315	0.1131010626674898	-0.02973736946008484	0.1220396334380783	-0.1070747249762688	-0.05104801346100712	-0.3089764337187485	0.3405430681735478	-0.01574193406906302	-0.06391723268006926	68.60698737540126	-10.45996031071239	7.300891753901485	-31.82114531576844	-598.070869717151	-96.90422747311533	-39.35753282368736	-2.194132210124766	-0.8529727919027373	-0.7285796536282585	7.655189482046601	-0.9783721221473315	2.644938610623306	-4.094611947634538	7.361664128197954	7.361664128196778	0.04481691946691339	-0.03499513141648362	2.076632724249959	-0.5329457460176094	-1.2489774481298e-07	1.177038351283636e-07	2.002086000365822e-07	8.514055768080891e-08	-4.095153814686824e-07	-9.563577600529364e-09	-3.616891160225189e-08
